Encoding /Users/adpena/projects/pact/workspace/upstream/comma_video_compression_challenge/videos/0.mkv -> /var/folders/xr/cdmnz18s68j8sybt6vcwjs200000gn/T/robust_current_archive.Zr0g24/archive/0.mkv
ffmpeg version 8.1 Copyright (c) 2000-2026 the FFmpeg developers
  built with Apple clang version 17.0.0 (clang-1700.6.4.2)
  configuration: --prefix=/opt/homebrew/Cellar/ffmpeg/8.1 --enable-shared --enable-pthreads --enable-version3 --cc=clang --host-cflags= --host-ldflags= --enable-ffplay --enable-gpl --enable-libsvtav1 --enable-libopus --enable-libx264 --enable-libmp3lame --enable-libdav1d --enable-libvpx --enable-libx265 --enable-openssl --enable-videotoolbox --enable-audiotoolbox --enable-neon
  libavutil      60. 26.100 / 60. 26.100
  libavcodec     62. 28.100 / 62. 28.100
  libavformat    62. 12.100 / 62. 12.100
  libavdevice    62.  3.100 / 62.  3.100
  libavfilter    11. 14.100 / 11. 14.100
  libswscale      9.  5.100 /  9.  5.100
  libswresample   6.  3.100 /  6.  3.100
Input #0, matroska,webm, from '/Users/adpena/projects/pact/workspace/upstream/comma_video_compression_challenge/videos/0.mkv':
  Metadata:
    SEGMENT         : b0c9d2329ad1606b|2018-07-27--06-03-57/10/video.hevc
    ENCODER         : Lavf60.16.100
  Duration: 00:01:00.00, start: 0.000000, bitrate: 5006 kb/s
  Stream #0:0: Video: hevc (Main), yuv420p(tv), 1164x874, 20 fps, 20 tbr, 1k tbn
    Metadata:
      DURATION        : 00:01:00.000000000
Stream mapping:
  Stream #0:0 -> #0:0 (hevc (native) -> av1 (libsvtav1))
Press [q] to stop, [?] for help
Svt[info]: -------------------------------------------
Svt[info]: SVT [version]:	SVT-AV1 Encoder Lib v4.1.0
Svt[info]: SVT [build]  :	Apple LLVM 17.0.0 (clang-1700.6.4.2)	 64 bit
Svt[info]: LIB Build date: Mar 23 2026 06:52:18
Svt[info]: -------------------------------------------
Svt[info]: Level of Parallelism: 5
Svt[info]: Number of PPCS 140
Svt[info]: [asm level on system : up to neon_i8mm]
Svt[info]: [asm level selected : up to neon_i8mm]
Svt[info]: -------------------------------------------
Svt[info]: SVT [config]: main profile	tier (auto)	level (auto)
Svt[info]: SVT [config]: width / height / fps numerator / fps denominator 		: 528 / 400 / 20 / 1
Svt[info]: SVT [config]: bit-depth / color format 					: 8 / YUV420
Svt[info]: SVT [config]: preset / tune / pred struct 					: 0 / PSNR / random access
Svt[info]: SVT [config]: gop size / mini-gop size / key-frame type 			: 180 / 32 / key frame
Svt[info]: SVT [config]: BRC mode / rate factor 					: CRF / 34.00 
Svt[info]: SVT [config]: AQ mode / Variance Boost 					: 2 / 0
Svt[info]: SVT [config]: film grain synth / denoising / level / adaptive blocksize 	: 1 / 0 / 22 / True
Svt[info]: SVT [config]: sharpness / luminance-based QP bias 				: 1 / 0
Svt[info]: SVT [config]: QP scale compress strength 					: 0
Svt[info]: -------------------------------------------
Output #0, matroska, to '/var/folders/xr/cdmnz18s68j8sybt6vcwjs200000gn/T/robust_current_archive.Zr0g24/archive/0.mkv':
  Metadata:
    SEGMENT         : b0c9d2329ad1606b|2018-07-27--06-03-57/10/video.hevc
    encoder         : Lavf62.12.100
  Stream #0:0: Video: av1 (AV01 / 0x31305641), yuv420p(tv, bt709, progressive), 524x394, q=2-31, 20 fps, 1k tbn
    Metadata:
      encoder         : Lavc62.28.100 libsvtav1
      DURATION        : 00:01:00.000000000
frame=    0 fps=0.0 q=0.0 size=       0KiB time=N/A bitrate=N/A speed=N/A elapsed=0:00:00.50    frame=    0 fps=0.0 q=0.0 size=       0KiB time=N/A bitrate=N/A speed=N/A elapsed=0:00:01.01    frame=    0 fps=0.0 q=0.0 size=       0KiB time=N/A bitrate=N/A speed=N/A elapsed=0:00:01.51    frame=    0 fps=0.0 q=0.0 size=       0KiB time=N/A bitrate=N/A speed=N/A elapsed=0:00:02.01    frame=    1 fps=0.4 q=14.0 size=       1KiB time=00:00:00.00 bitrate=N/A speed=   0x elapsed=0:00:02.52    frame=    1 fps=0.3 q=14.0 size=       1KiB time=00:00:00.00 bitrate=N/A speed=   0x elapsed=0:00:03.02    frame=    1 fps=0.3 q=14.0 size=       1KiB time=00:00:00.00 bitrate=N/A speed=   0x elapsed=0:00:03.53    frame=    1 fps=0.2 q=14.0 size=       1KiB time=00:00:00.00 bitrate=N/A speed=   0x elapsed=0:00:04.03    frame=    1 fps=0.2 q=14.0 size=       1KiB time=00:00:00.00 bitrate=N/A speed=   0x elapsed=0:00:04.53    frame=    1 fps=0.2 q=14.0 size=       1KiB time=00:00:00.00 bitrate=N/A speed=   0x elapsed=0:00:05.04    frame=    7 fps=1.3 q=32.0 size=       1KiB time=00:00:00.30 bitrate=  17.0kbits/s speed=0.054x elapsed=0:00:05.55    frame=   13 fps=2.1 q=28.0 size=       1KiB time=00:00:00.60 bitrate=   8.5kbits/s speed=0.099x elapsed=0:00:06.05    frame=   17 fps=2.6 q=19.0 size=       1KiB time=00:00:00.80 bitrate=   6.4kbits/s speed=0.122x elapsed=0:00:06.57    frame=   23 fps=3.2 q=31.0 size=       1KiB time=00:00:01.10 bitrate=   4.6kbits/s speed=0.155x elapsed=0:00:07.08    frame=   27 fps=3.6 q=31.0 size=       1KiB time=00:00:01.30 bitrate=   3.9kbits/s speed=0.171x elapsed=0:00:07.59    frame=   30 fps=3.7 q=34.0 size=       1KiB time=00:00:01.45 bitrate=   3.5kbits/s speed=0.179x elapsed=0:00:08.10    frame=   36 fps=4.2 q=34.0 size=       1KiB time=00:00:01.75 bitrate=   2.9kbits/s speed=0.203x elapsed=0:00:08.60    frame=   43 fps=4.7 q=32.0 size=       1KiB time=00:00:02.10 bitrate=   2.4kbits/s speed=0.23x elapsed=0:00:09.11    frame=   46 fps=4.8 q=34.0 size=       1KiB time=00:00:02.25 bitrate=   2.3kbits/s speed=0.234x elapsed=0:00:09.61    frame=   48 fps=4.7 q=34.0 size=       1KiB time=00:00:02.35 bitrate=   2.2kbits/s speed=0.232x elapsed=0:00:10.11    frame=   52 fps=4.9 q=34.0 size=       1KiB time=00:00:02.55 bitrate=   2.0kbits/s speed=0.24x elapsed=0:00:10.62    frame=   56 fps=5.0 q=34.0 size=       1KiB time=00:00:02.75 bitrate=   1.9kbits/s speed=0.247x elapsed=0:00:11.12    frame=   62 fps=5.3 q=34.0 size=       1KiB time=00:00:03.05 bitrate=   1.7kbits/s speed=0.262x elapsed=0:00:11.63    frame=   68 fps=5.6 q=34.0 size=       1KiB time=00:00:03.35 bitrate=   1.5kbits/s speed=0.276x elapsed=0:00:12.14    frame=   74 fps=5.8 q=34.0 size=       1KiB time=00:00:03.65 bitrate=   1.4kbits/s speed=0.288x elapsed=0:00:12.66    frame=   77 fps=5.8 q=31.0 size=       1KiB time=00:00:03.80 bitrate=   1.3kbits/s speed=0.288x elapsed=0:00:13.17    frame=   78 fps=5.7 q=34.0 size=       1KiB time=00:00:03.85 bitrate=   1.3kbits/s speed=0.282x elapsed=0:00:13.67    frame=   83 fps=5.9 q=32.0 size=       1KiB time=00:00:04.10 bitrate=   1.2kbits/s speed=0.289x elapsed=0:00:14.18    frame=   88 fps=6.0 q=34.0 size=       1KiB time=00:00:04.35 bitrate=   1.2kbits/s speed=0.296x elapsed=0:00:14.68    frame=   94 fps=6.2 q=34.0 size=       1KiB time=00:00:04.65 bitrate=   1.1kbits/s speed=0.306x elapsed=0:00:15.19    frame=  100 fps=6.4 q=34.0 size=       1KiB time=00:00:04.95 bitrate=   1.0kbits/s speed=0.315x elapsed=0:00:15.70    frame=  105 fps=6.5 q=32.0 size=      75KiB time=00:00:05.20 bitrate= 118.0kbits/s speed=0.321x elapsed=0:00:16.20    frame=  108 fps=6.5 q=34.0 size=      75KiB time=00:00:05.35 bitrate= 114.7kbits/s speed=0.32x elapsed=0:00:16.71    frame=  110 fps=6.4 q=34.0 size=      75KiB time=00:00:05.45 bitrate= 112.6kbits/s speed=0.317x elapsed=0:00:17.21    frame=  113 fps=6.4 q=21.0 size=      75KiB time=00:00:05.60 bitrate= 109.6kbits/s speed=0.316x elapsed=0:00:17.72    frame=  118 fps=6.5 q=34.0 size=      75KiB time=00:00:05.85 bitrate= 104.9kbits/s speed=0.321x elapsed=0:00:18.24    frame=  122 fps=6.5 q=34.0 size=      75KiB time=00:00:06.05 bitrate= 101.4kbits/s speed=0.323x elapsed=0:00:18.74    frame=  126 fps=6.5 q=34.0 size=      75KiB time=00:00:06.25 bitrate=  98.2kbits/s speed=0.324x elapsed=0:00:19.26    frame=  129 fps=6.5 q=15.0 size=      75KiB time=00:00:06.40 bitrate=  95.9kbits/s speed=0.324x elapsed=0:00:19.76    frame=  134 fps=6.6 q=34.0 size=      75KiB time=00:00:06.65 bitrate=  92.3kbits/s speed=0.328x elapsed=0:00:20.27    frame=  138 fps=6.6 q=34.0 size=      75KiB time=00:00:06.85 bitrate=  89.6kbits/s speed=0.33x elapsed=0:00:20.77    frame=  142 fps=6.7 q=34.0 size=      75KiB time=00:00:07.05 bitrate=  87.0kbits/s speed=0.331x elapsed=0:00:21.27    frame=  143 fps=6.6 q=32.0 size=      75KiB time=00:00:07.10 bitrate=  86.4kbits/s speed=0.326x elapsed=0:00:21.78    frame=  145 fps=6.5 q=23.0 size=      75KiB time=00:00:07.20 bitrate=  85.2kbits/s speed=0.323x elapsed=0:00:22.29    frame=  147 fps=6.4 q=32.0 size=      75KiB time=00:00:07.30 bitrate=  84.1kbits/s speed=0.32x elapsed=0:00:22.79    frame=  149 fps=6.4 q=30.0 size=      75KiB time=00:00:07.40 bitrate=  82.9kbits/s speed=0.318x elapsed=0:00:23.29    frame=  152 fps=6.4 q=34.0 size=      75KiB time=00:00:07.55 bitrate=  81.3kbits/s speed=0.317x elapsed=0:00:23.80    frame=  158 fps=6.5 q=34.0 size=      75KiB time=00:00:07.85 bitrate=  78.2kbits/s speed=0.323x elapsed=0:00:24.31    frame=  164 fps=6.6 q=34.0 size=      75KiB time=00:00:08.15 bitrate=  75.3kbits/s speed=0.328x elapsed=0:00:24.81    frame=  167 fps=6.6 q=31.0 size=      75KiB time=00:00:08.30 bitrate=  73.9kbits/s speed=0.328x elapsed=0:00:25.32    frame=  169 fps=6.5 q=26.0 size=      75KiB time=00:00:08.40 bitrate=  73.1kbits/s speed=0.325x elapsed=0:00:25.83    frame=  169 fps=6.4 q=26.0 size=      75KiB time=00:00:08.40 bitrate=  73.1kbits/s speed=0.319x elapsed=0:00:26.34    frame=  171 fps=6.4 q=33.0 size=      75KiB time=00:00:08.50 bitrate=  72.2kbits/s speed=0.316x elapsed=0:00:26.86    frame=  173 fps=6.3 q=32.0 size=      75KiB time=00:00:08.60 bitrate=  71.4kbits/s speed=0.314x elapsed=0:00:27.36    frame=  174 fps=6.2 q=34.0 size=      75KiB time=00:00:08.65 bitrate=  70.9kbits/s speed=0.31x elapsed=0:00:27.86    frame=  178 fps=6.3 q=34.0 size=      75KiB time=00:00:08.85 bitrate=  69.3kbits/s speed=0.312x elapsed=0:00:28.37    frame=  180 fps=6.2 q=34.0 size=      75KiB time=00:00:08.95 bitrate=  68.6kbits/s speed=0.31x elapsed=0:00:28.87    frame=  186 fps=6.3 q=34.0 size=     130KiB time=00:00:09.25 bitrate= 115.4kbits/s speed=0.315x elapsed=0:00:29.37    frame=  191 fps=6.4 q=31.0 size=     130KiB time=00:00:09.50 bitrate= 112.4kbits/s speed=0.318x elapsed=0:00:29.88    frame=  195 fps=6.4 q=33.0 size=     130KiB time=00:00:09.70 bitrate= 110.1kbits/s speed=0.319x elapsed=0:00:30.39    frame=  198 fps=6.4 q=32.0 size=     130KiB time=00:00:09.90 bitrate= 107.8kbits/s speed=0.32x elapsed=0:00:30.89    frame=  201 fps=6.4 q=31.0 size=     130KiB time=00:00:10.00 bitrate= 106.7kbits/s speed=0.318x elapsed=0:00:31.40    frame=  202 fps=6.3 q=34.0 size=     130KiB time=00:00:10.05 bitrate= 106.2kbits/s speed=0.315x elapsed=0:00:31.91    frame=  206 fps=6.4 q=34.0 size=     130KiB time=00:00:10.25 bitrate= 104.1kbits/s speed=0.316x elapsed=0:00:32.41    frame=  210 fps=6.4 q=34.0 size=     130KiB time=00:00:10.45 bitrate= 102.2kbits/s speed=0.317x elapsed=0:00:32.92    frame=  215 fps=6.4 q=32.0 size=     130KiB time=00:00:10.70 bitrate=  99.8kbits/s speed=0.32x elapsed=0:00:33.43    frame=  219 fps=6.5 q=32.0 size=     130KiB time=00:00:10.90 bitrate=  97.9kbits/s speed=0.321x elapsed=0:00:33.93    frame=  222 fps=6.4 q=34.0 size=     130KiB time=00:00:11.05 bitrate=  96.6kbits/s speed=0.321x elapsed=0:00:34.45    frame=  227 fps=6.5 q=31.0 size=     130KiB time=00:00:11.30 bitrate=  94.5kbits/s speed=0.323x elapsed=0:00:34.95    frame=  230 fps=6.5 q=32.0 size=     130KiB time=00:00:11.50 bitrate=  92.8kbits/s speed=0.324x elapsed=0:00:35.46    frame=  233 fps=6.5 q=31.0 size=     130KiB time=00:00:11.60 bitrate=  92.0kbits/s speed=0.322x elapsed=0:00:35.97    frame=  236 fps=6.5 q=34.0 size=     130KiB time=00:00:11.75 bitrate=  90.9kbits/s speed=0.322x elapsed=0:00:36.49    frame=  243 fps=6.6 q=33.0 size=     130KiB time=00:00:12.10 bitrate=  88.2kbits/s speed=0.327x elapsed=0:00:37.00    frame=  249 fps=6.6 q=31.0 size=     130KiB time=00:00:12.40 bitrate=  86.1kbits/s speed=0.33x elapsed=0:00:37.52    frame=  253 fps=6.7 q=30.0 size=     130KiB time=00:00:12.60 bitrate=  84.7kbits/s speed=0.331x elapsed=0:00:38.02    frame=  259 fps=6.7 q=32.0 size=     130KiB time=00:00:12.90 bitrate=  82.8kbits/s speed=0.335x elapsed=0:00:38.52    frame=  262 fps=6.7 q=34.0 size=     130KiB time=00:00:13.05 bitrate=  81.8kbits/s speed=0.334x elapsed=0:00:39.04    frame=  265 fps=6.7 q=31.0 size=     130KiB time=00:00:13.20 bitrate=  80.9kbits/s speed=0.334x elapsed=0:00:39.54    frame=  266 fps=6.6 q=34.0 size=     130KiB time=00:00:13.25 bitrate=  80.6kbits/s speed=0.331x elapsed=0:00:40.05    frame=  272 fps=6.7 q=34.0 size=     130KiB time=00:00:13.55 bitrate=  78.8kbits/s speed=0.334x elapsed=0:00:40.55    frame=  275 fps=6.7 q=33.0 size=     130KiB time=00:00:13.70 bitrate=  77.9kbits/s speed=0.334x elapsed=0:00:41.05    frame=  279 fps=6.7 q=33.0 size=     130KiB time=00:00:13.90 bitrate=  76.8kbits/s speed=0.334x elapsed=0:00:41.56    frame=  287 fps=6.8 q=32.0 size=     227KiB time=00:00:14.30 bitrate= 129.8kbits/s speed=0.34x elapsed=0:00:42.06    frame=  291 fps=6.8 q=33.0 size=     227KiB time=00:00:14.50 bitrate= 128.0kbits/s speed=0.341x elapsed=0:00:42.57    frame=  297 fps=6.9 q=31.0 size=     227KiB time=00:00:14.80 bitrate= 125.4kbits/s speed=0.344x elapsed=0:00:43.07    frame=  300 fps=6.9 q=34.0 size=     227KiB time=00:00:14.95 bitrate= 124.1kbits/s speed=0.343x elapsed=0:00:43.58    frame=  302 fps=6.8 q=34.0 size=     227KiB time=00:00:15.05 bitrate= 123.3kbits/s speed=0.341x elapsed=0:00:44.08    frame=  307 fps=6.9 q=32.0 size=     227KiB time=00:00:15.30 bitrate= 121.3kbits/s speed=0.343x elapsed=0:00:44.59    frame=  311 fps=6.9 q=33.0 size=     227KiB time=00:00:15.50 bitrate= 119.7kbits/s speed=0.344x elapsed=0:00:45.10    frame=  318 fps=7.0 q=34.0 size=     227KiB time=00:00:15.85 bitrate= 117.1kbits/s speed=0.347x elapsed=0:00:45.61    frame=  325 fps=7.0 q=23.0 size=     227KiB time=00:00:16.20 bitrate= 114.5kbits/s speed=0.351x elapsed=0:00:46.11    frame=  329 fps=7.1 q=31.0 size=     227KiB time=00:00:16.40 bitrate= 113.1kbits/s speed=0.352x elapsed=0:00:46.62    frame=  334 fps=7.1 q=34.0 size=     227KiB time=00:00:16.65 bitrate= 111.4kbits/s speed=0.353x elapsed=0:00:47.12    frame=  340 fps=7.1 q=34.0 size=     227KiB time=00:00:16.95 bitrate= 109.5kbits/s speed=0.356x elapsed=0:00:47.63    frame=  343 fps=7.1 q=33.0 size=     227KiB time=00:00:17.10 bitrate= 108.5kbits/s speed=0.355x elapsed=0:00:48.14    frame=  346 fps=7.1 q=34.0 size=     227KiB time=00:00:17.25 bitrate= 107.6kbits/s speed=0.355x elapsed=0:00:48.65    frame=  352 fps=7.2 q=34.0 size=     227KiB time=00:00:17.55 bitrate= 105.7kbits/s speed=0.357x elapsed=0:00:49.16    frame=  354 fps=7.1 q=34.0 size=     227KiB time=00:00:17.65 bitrate= 105.1kbits/s speed=0.355x elapsed=0:00:49.66    frame=  357 fps=7.1 q=24.0 size=     227KiB time=00:00:17.80 bitrate= 104.2kbits/s speed=0.355x elapsed=0:00:50.18    frame=  361 fps=7.1 q=16.0 size=     227KiB time=00:00:18.00 bitrate= 103.1kbits/s speed=0.355x elapsed=0:00:50.69    frame=  366 fps=7.1 q=34.0 size=     256KiB time=00:00:18.25 bitrate= 114.9kbits/s speed=0.356x elapsed=0:00:51.20    frame=  370 fps=7.2 q=34.0 size=     256KiB time=00:00:18.45 bitrate= 113.7kbits/s speed=0.357x elapsed=0:00:51.71    frame=  373 fps=7.1 q=32.0 size=     256KiB time=00:00:18.60 bitrate= 112.8kbits/s speed=0.356x elapsed=0:00:52.21    frame=  375 fps=7.1 q=33.0 size=     256KiB time=00:00:18.70 bitrate= 112.1kbits/s speed=0.355x elapsed=0:00:52.72    frame=  379 fps=7.1 q=33.0 size=     256KiB time=00:00:18.90 bitrate= 111.0kbits/s speed=0.355x elapsed=0:00:53.22    frame=  387 fps=7.2 q=33.0 size=     256KiB time=00:00:19.30 bitrate= 108.7kbits/s speed=0.359x elapsed=0:00:53.73    frame=  394 fps=7.3 q=34.0 size=     256KiB time=00:00:19.65 bitrate= 106.7kbits/s speed=0.362x elapsed=0:00:54.23    frame=  398 fps=7.3 q=34.0 size=     256KiB time=00:00:19.85 bitrate= 105.6kbits/s speed=0.363x elapsed=0:00:54.73    frame=  403 fps=7.3 q=32.0 size=     256KiB time=00:00:20.10 bitrate= 104.3kbits/s speed=0.364x elapsed=0:00:55.24    frame=  405 fps=7.3 q=32.0 size=     256KiB time=00:00:20.20 bitrate= 103.8kbits/s speed=0.362x elapsed=0:00:55.75    frame=  410 fps=7.3 q=34.0 size=     256KiB time=00:00:20.45 bitrate= 102.6kbits/s speed=0.363x elapsed=0:00:56.26    frame=  414 fps=7.3 q=34.0 size=     256KiB time=00:00:20.65 bitrate= 101.6kbits/s speed=0.364x elapsed=0:00:56.77    frame=  421 fps=7.4 q=33.0 size=     256KiB time=00:00:21.00 bitrate=  99.9kbits/s speed=0.367x elapsed=0:00:57.27    frame=  424 fps=7.3 q=34.0 size=     256KiB time=00:00:21.15 bitrate=  99.2kbits/s speed=0.366x elapsed=0:00:57.78    frame=  429 fps=7.4 q=32.0 size=     256KiB time=00:00:21.40 bitrate=  98.0kbits/s speed=0.367x elapsed=0:00:58.28    frame=  433 fps=7.4 q=32.0 size=     256KiB time=00:00:21.60 bitrate=  97.1kbits/s speed=0.367x elapsed=0:00:58.79    frame=  436 fps=7.4 q=34.0 size=     256KiB time=00:00:21.75 bitrate=  96.4kbits/s speed=0.367x elapsed=0:00:59.29    frame=  438 fps=7.3 q=34.0 size=     256KiB time=00:00:21.85 bitrate=  96.0kbits/s speed=0.365x elapsed=0:00:59.80    frame=  442 fps=7.3 q=33.0 size=     256KiB time=00:00:22.10 bitrate=  94.9kbits/s speed=0.366x elapsed=0:01:00.31    frame=  447 fps=7.3 q=32.0 size=     256KiB time=00:00:22.30 bitrate=  94.0kbits/s speed=0.367x elapsed=0:01:00.82    frame=  452 fps=7.4 q=34.0 size=     256KiB time=00:00:22.55 bitrate=  93.0kbits/s speed=0.368x elapsed=0:01:01.33    frame=  457 fps=7.4 q=14.0 size=     256KiB time=00:00:22.80 bitrate=  92.0kbits/s speed=0.369x elapsed=0:01:01.83    frame=  460 fps=7.4 q=34.0 size=     256KiB time=00:00:22.95 bitrate=  91.4kbits/s speed=0.368x elapsed=0:01:02.34    frame=  463 fps=7.4 q=32.0 size=     256KiB time=00:00:23.10 bitrate=  90.8kbits/s speed=0.368x elapsed=0:01:02.85    frame=  467 fps=7.4 q=32.0 size=     256KiB time=00:00:23.30 bitrate=  90.0kbits/s speed=0.368x elapsed=0:01:03.35    frame=  471 fps=7.4 q=33.0 size=     256KiB time=00:00:23.50 bitrate=  89.2kbits/s speed=0.368x elapsed=0:01:03.86    frame=  474 fps=7.4 q=34.0 size=     256KiB time=00:00:23.65 bitrate=  88.7kbits/s speed=0.367x elapsed=0:01:04.36    frame=  478 fps=7.4 q=32.0 size=     256KiB time=00:00:23.90 bitrate=  87.7kbits/s speed=0.368x elapsed=0:01:04.87    frame=  485 fps=7.4 q=31.0 size=     256KiB time=00:00:24.20 bitrate=  86.7kbits/s speed=0.37x elapsed=0:01:05.38    frame=  490 fps=7.4 q=34.0 size=     256KiB time=00:00:24.45 bitrate=  85.8kbits/s speed=0.371x elapsed=0:01:05.89    frame=  497 fps=7.5 q=31.0 size=     256KiB time=00:00:24.80 bitrate=  84.6kbits/s speed=0.373x elapsed=0:01:06.40    frame=  501 fps=7.5 q=32.0 size=     256KiB time=00:00:25.00 bitrate=  83.9kbits/s speed=0.374x elapsed=0:01:06.90    frame=  505 fps=7.5 q=24.0 size=     256KiB time=00:00:25.20 bitrate=  83.2kbits/s speed=0.374x elapsed=0:01:07.41    frame=  510 fps=7.5 q=34.0 size=     256KiB time=00:00:25.45 bitrate=  82.4kbits/s speed=0.375x elapsed=0:01:07.91    frame=  515 fps=7.5 q=32.0 size=     256KiB time=00:00:25.70 bitrate=  81.6kbits/s speed=0.376x elapsed=0:01:08.42    frame=  520 fps=7.5 q=34.0 size=     256KiB time=00:00:25.95 bitrate=  80.8kbits/s speed=0.376x elapsed=0:01:08.93    frame=  528 fps=7.6 q=34.0 size=     256KiB time=00:00:26.35 bitrate=  79.6kbits/s speed=0.379x elapsed=0:01:09.43    frame=  532 fps=7.6 q=34.0 size=     256KiB time=00:00:26.55 bitrate=  79.0kbits/s speed=0.38x elapsed=0:01:09.95    frame=  536 fps=7.6 q=34.0 size=     256KiB time=00:00:26.75 bitrate=  78.4kbits/s speed=0.38x elapsed=0:01:10.46    frame=  539 fps=7.6 q=30.0 size=     256KiB time=00:00:26.90 bitrate=  78.0kbits/s speed=0.379x elapsed=0:01:10.96    frame=  542 fps=7.6 q=34.0 size=     256KiB time=00:00:27.05 bitrate=  77.5kbits/s speed=0.378x elapsed=0:01:11.47    frame=  549 fps=7.6 q=32.0 size=     256KiB time=00:00:27.40 bitrate=  76.5kbits/s speed=0.381x elapsed=0:01:11.98    frame=  552 fps=7.6 q=34.0 size=     256KiB time=00:00:27.55 bitrate=  76.1kbits/s speed=0.38x elapsed=0:01:12.48    frame=  557 fps=7.6 q=23.0 size=     256KiB time=00:00:27.80 bitrate=  75.4kbits/s speed=0.381x elapsed=0:01:12.99    frame=  561 fps=7.6 q=34.0 size=     256KiB time=00:00:28.05 bitrate=  74.8kbits/s speed=0.382x elapsed=0:01:13.51    frame=  567 fps=7.7 q=32.0 size=     256KiB time=00:00:28.30 bitrate=  74.1kbits/s speed=0.382x elapsed=0:01:14.01    frame=  573 fps=7.7 q=14.0 size=     256KiB time=00:00:28.60 bitrate=  73.3kbits/s speed=0.384x elapsed=0:01:14.52    frame=  578 fps=7.7 q=34.0 size=     256KiB time=00:00:28.85 bitrate=  72.7kbits/s speed=0.384x elapsed=0:01:15.03    frame=  583 fps=7.7 q=32.0 size=     256KiB time=00:00:29.10 bitrate=  72.1kbits/s speed=0.385x elapsed=0:01:15.53    frame=  585 fps=7.7 q=32.0 size=     256KiB time=00:00:29.20 bitrate=  71.8kbits/s speed=0.384x elapsed=0:01:16.04    frame=  590 fps=7.7 q=34.0 size=     256KiB time=00:00:29.45 bitrate=  71.2kbits/s speed=0.385x elapsed=0:01:16.54    frame=  594 fps=7.7 q=34.0 size=     256KiB time=00:00:29.65 bitrate=  70.7kbits/s speed=0.385x elapsed=0:01:17.05    frame=  598 fps=7.7 q=34.0 size=     256KiB time=00:00:29.85 bitrate=  70.3kbits/s speed=0.385x elapsed=0:01:17.56    frame=  602 fps=7.7 q=34.0 size=     256KiB time=00:00:30.05 bitrate=  69.8kbits/s speed=0.385x elapsed=0:01:18.07    frame=  607 fps=7.7 q=33.0 size=     256KiB time=00:00:30.30 bitrate=  69.2kbits/s speed=0.386x elapsed=0:01:18.58    frame=  613 fps=7.8 q=31.0 size=     256KiB time=00:00:30.60 bitrate=  68.5kbits/s speed=0.387x elapsed=0:01:19.08    frame=  616 fps=7.7 q=34.0 size=     256KiB time=00:00:30.75 bitrate=  68.2kbits/s speed=0.386x elapsed=0:01:19.59    frame=  619 fps=7.7 q=33.0 size=     256KiB time=00:00:30.90 bitrate=  67.9kbits/s speed=0.386x elapsed=0:01:20.09    frame=  623 fps=7.7 q=33.0 size=     256KiB time=00:00:31.10 bitrate=  67.4kbits/s speed=0.386x elapsed=0:01:20.59    frame=  629 fps=7.8 q=31.0 size=     256KiB time=00:00:31.40 bitrate=  66.8kbits/s speed=0.387x elapsed=0:01:21.09    frame=  633 fps=7.8 q=31.0 size=     256KiB time=00:00:31.60 bitrate=  66.4kbits/s speed=0.387x elapsed=0:01:21.60    frame=  636 fps=7.7 q=34.0 size=     256KiB time=00:00:31.75 bitrate=  66.1kbits/s speed=0.387x elapsed=0:01:22.10    frame=  642 fps=7.8 q=34.0 size=     256KiB time=00:00:32.05 bitrate=  65.4kbits/s speed=0.388x elapsed=0:01:22.61    frame=  647 fps=7.8 q=32.0 size=     256KiB time=00:00:32.30 bitrate=  64.9kbits/s speed=0.389x elapsed=0:01:23.12    frame=  651 fps=7.8 q=33.0 size=     256KiB time=00:00:32.50 bitrate=  64.5kbits/s speed=0.389x elapsed=0:01:23.63    frame=  656 fps=7.8 q=34.0 size=     256KiB time=00:00:32.75 bitrate=  64.0kbits/s speed=0.389x elapsed=0:01:24.13    frame=  660 fps=7.8 q=34.0 size=     256KiB time=00:00:32.95 bitrate=  63.6kbits/s speed=0.389x elapsed=0:01:24.65    frame=  665 fps=7.8 q=32.0 size=     256KiB time=00:00:33.20 bitrate=  63.2kbits/s speed=0.39x elapsed=0:01:25.15    frame=  670 fps=7.8 q=34.0 size=     256KiB time=00:00:33.45 bitrate=  62.7kbits/s speed=0.39x elapsed=0:01:25.66    frame=  675 fps=7.8 q=33.0 size=     256KiB time=00:00:33.70 bitrate=  62.2kbits/s speed=0.391x elapsed=0:01:26.16    frame=  678 fps=7.8 q=34.0 size=     256KiB time=00:00:33.85 bitrate=  62.0kbits/s speed=0.391x elapsed=0:01:26.67    frame=  683 fps=7.8 q=32.0 size=     256KiB time=00:00:34.10 bitrate=  61.5kbits/s speed=0.391x elapsed=0:01:27.18    frame=  688 fps=7.8 q=34.0 size=     256KiB time=00:00:34.35 bitrate=  61.1kbits/s speed=0.392x elapsed=0:01:27.69    frame=  695 fps=7.9 q=32.0 size=     256KiB time=00:00:34.70 bitrate=  60.4kbits/s speed=0.393x elapsed=0:01:28.19    frame=  699 fps=7.9 q=33.0 size=     256KiB time=00:00:34.90 bitrate=  60.1kbits/s speed=0.393x elapsed=0:01:28.71    frame=  702 fps=7.9 q=34.0 size=     256KiB time=00:00:35.05 bitrate=  59.8kbits/s speed=0.393x elapsed=0:01:29.22    frame=  706 fps=7.9 q=34.0 size=     256KiB time=00:00:35.25 bitrate=  59.5kbits/s speed=0.393x elapsed=0:01:29.73    frame=  711 fps=7.9 q=33.0 size=     256KiB time=00:00:35.50 bitrate=  59.1kbits/s speed=0.393x elapsed=0:01:30.23    frame=  717 fps=7.9 q=23.0 size=     256KiB time=00:00:35.80 bitrate=  58.6kbits/s speed=0.394x elapsed=0:01:30.74    frame=  720 fps=7.9 q=34.0 size=     256KiB time=00:00:35.95 bitrate=  58.3kbits/s speed=0.394x elapsed=0:01:31.25    frame=  726 fps=7.9 q=34.0 size=     256KiB time=00:00:36.25 bitrate=  57.9kbits/s speed=0.395x elapsed=0:01:31.76    frame=  731 fps=7.9 q=32.0 size=     256KiB time=00:00:36.50 bitrate=  57.5kbits/s speed=0.396x elapsed=0:01:32.27    frame=  733 fps=7.9 q=31.0 size=     256KiB time=00:00:36.60 bitrate=  57.3kbits/s speed=0.394x elapsed=0:01:32.78    frame=  737 fps=7.9 q=22.0 size=     256KiB time=00:00:36.80 bitrate=  57.0kbits/s speed=0.394x elapsed=0:01:33.29    frame=  742 fps=7.9 q=34.0 size=     256KiB time=00:00:37.05 bitrate=  56.6kbits/s speed=0.395x elapsed=0:01:33.79    frame=  748 fps=7.9 q=34.0 size=     256KiB time=00:00:37.35 bitrate=  56.1kbits/s speed=0.396x elapsed=0:01:34.30    frame=  750 fps=7.9 q=34.0 size=     256KiB time=00:00:37.45 bitrate=  56.0kbits/s speed=0.395x elapsed=0:01:34.80    frame=  758 fps=8.0 q=34.0 size=     256KiB time=00:00:37.85 bitrate=  55.4kbits/s speed=0.397x elapsed=0:01:35.31    frame=  763 fps=8.0 q=32.0 size=     256KiB time=00:00:38.10 bitrate=  55.0kbits/s speed=0.398x elapsed=0:01:35.82    frame=  764 fps=7.9 q=34.0 size=     256KiB time=00:00:38.15 bitrate=  55.0kbits/s speed=0.396x elapsed=0:01:36.34    frame=  767 fps=7.9 q=32.0 size=     256KiB time=00:00:38.30 bitrate=  54.8kbits/s speed=0.395x elapsed=0:01:36.85    frame=  773 fps=7.9 q=32.0 size=     256KiB time=00:00:38.60 bitrate=  54.3kbits/s speed=0.397x elapsed=0:01:37.35    frame=  777 fps=7.9 q=30.0 size=     256KiB time=00:00:38.80 bitrate=  54.1kbits/s speed=0.397x elapsed=0:01:37.85    frame=  781 fps=7.9 q=32.0 size=     256KiB time=00:00:39.00 bitrate=  53.8kbits/s speed=0.396x elapsed=0:01:38.36    frame=  787 fps=8.0 q=33.0 size=     256KiB time=00:00:39.30 bitrate=  53.4kbits/s speed=0.397x elapsed=0:01:38.87    frame=  793 fps=8.0 q=31.0 size=     256KiB time=00:00:39.60 bitrate=  53.0kbits/s speed=0.398x elapsed=0:01:39.38    frame=  795 fps=8.0 q=33.0 size=     256KiB time=00:00:39.70 bitrate=  52.8kbits/s speed=0.397x elapsed=0:01:39.89    frame=  797 fps=7.9 q=31.0 size=     256KiB time=00:00:39.80 bitrate=  52.7kbits/s speed=0.396x elapsed=0:01:40.39    frame=  798 fps=7.9 q=34.0 size=     256KiB time=00:00:39.85 bitrate=  52.6kbits/s speed=0.395x elapsed=0:01:40.89    frame=  802 fps=7.9 q=34.0 size=     256KiB time=00:00:40.05 bitrate=  52.4kbits/s speed=0.395x elapsed=0:01:41.41    frame=  805 fps=7.9 q=31.0 size=     256KiB time=00:00:40.20 bitrate=  52.2kbits/s speed=0.394x elapsed=0:01:41.91    frame=  808 fps=7.9 q=34.0 size=     256KiB time=00:00:40.35 bitrate=  52.0kbits/s speed=0.394x elapsed=0:01:42.42    frame=  811 fps=7.9 q=33.0 size=     256KiB time=00:00:40.50 bitrate=  51.8kbits/s speed=0.393x elapsed=0:01:42.93    frame=  816 fps=7.9 q=34.0 size=     256KiB time=00:00:40.75 bitrate=  51.5kbits/s speed=0.394x elapsed=0:01:43.44    frame=  820 fps=7.9 q=34.0 size=     256KiB time=00:00:40.95 bitrate=  51.2kbits/s speed=0.394x elapsed=0:01:43.95    frame=  825 fps=7.9 q=31.0 size=     512KiB time=00:00:41.20 bitrate= 101.8kbits/s speed=0.394x elapsed=0:01:44.47    frame=  830 fps=7.9 q=34.0 size=     512KiB time=00:00:41.45 bitrate= 101.2kbits/s speed=0.395x elapsed=0:01:44.97    frame=  831 fps=7.9 q=34.0 size=     512KiB time=00:00:41.55 bitrate= 100.9kbits/s speed=0.394x elapsed=0:01:45.48    frame=  835 fps=7.9 q=32.0 size=     512KiB time=00:00:41.70 bitrate= 100.6kbits/s speed=0.393x elapsed=0:01:46.00    frame=  839 fps=7.9 q=32.0 size=     512KiB time=00:00:41.90 bitrate= 100.1kbits/s speed=0.393x elapsed=0:01:46.51    frame=  844 fps=7.9 q=34.0 size=     512KiB time=00:00:42.15 bitrate=  99.5kbits/s speed=0.394x elapsed=0:01:47.01    frame=  849 fps=7.9 q=15.0 size=     512KiB time=00:00:42.40 bitrate=  98.9kbits/s speed=0.394x elapsed=0:01:47.52    frame=  855 fps=7.9 q=33.0 size=     512KiB time=00:00:42.70 bitrate=  98.2kbits/s speed=0.395x elapsed=0:01:48.02    frame=  860 fps=7.9 q=34.0 size=     512KiB time=00:00:42.95 bitrate=  97.7kbits/s speed=0.396x elapsed=0:01:48.53    frame=  864 fps=7.9 q=34.0 size=     512KiB time=00:00:43.15 bitrate=  97.2kbits/s speed=0.396x elapsed=0:01:49.04    frame=  871 fps=8.0 q=33.0 size=     512KiB time=00:00:43.50 bitrate=  96.4kbits/s speed=0.397x elapsed=0:01:49.55    frame=  874 fps=7.9 q=34.0 size=     512KiB time=00:00:43.65 bitrate=  96.1kbits/s speed=0.397x elapsed=0:01:50.05    frame=  879 fps=7.9 q=32.0 size=     512KiB time=00:00:43.90 bitrate=  95.5kbits/s speed=0.397x elapsed=0:01:50.57    frame=  887 fps=8.0 q=32.0 size=     512KiB time=00:00:44.30 bitrate=  94.7kbits/s speed=0.399x elapsed=0:01:51.08    frame=  890 fps=8.0 q=34.0 size=     512KiB time=00:00:44.45 bitrate=  94.4kbits/s speed=0.398x elapsed=0:01:51.59    frame=  896 fps=8.0 q=34.0 size=     512KiB time=00:00:44.75 bitrate=  93.7kbits/s speed=0.399x elapsed=0:01:52.10    frame=  899 fps=8.0 q=30.0 size=     512KiB time=00:00:44.90 bitrate=  93.4kbits/s speed=0.399x elapsed=0:01:52.60    frame=  904 fps=8.0 q=34.0 size=     512KiB time=00:00:45.15 bitrate=  92.9kbits/s speed=0.399x elapsed=0:01:53.12    frame=  909 fps=8.0 q=30.0 size=     512KiB time=00:00:45.40 bitrate=  92.4kbits/s speed= 0.4x elapsed=0:01:53.62    frame=  912 fps=8.0 q=34.0 size=     512KiB time=00:00:45.55 bitrate=  92.1kbits/s speed=0.399x elapsed=0:01:54.14    frame=  913 fps=8.0 q=30.0 size=     512KiB time=00:00:45.60 bitrate=  92.0kbits/s speed=0.398x elapsed=0:01:54.64    frame=  918 fps=8.0 q=34.0 size=     512KiB time=00:00:45.85 bitrate=  91.5kbits/s speed=0.398x elapsed=0:01:55.15    frame=  922 fps=8.0 q=34.0 size=     512KiB time=00:00:46.05 bitrate=  91.1kbits/s speed=0.398x elapsed=0:01:55.65    frame=  926 fps=8.0 q=34.0 size=     512KiB time=00:00:46.25 bitrate=  90.7kbits/s speed=0.398x elapsed=0:01:56.16    frame=  932 fps=8.0 q=34.0 size=     512KiB time=00:00:46.55 bitrate=  90.1kbits/s speed=0.399x elapsed=0:01:56.67    frame=  937 fps=8.0 q=31.0 size=     512KiB time=00:00:46.80 bitrate=  89.6kbits/s speed=0.399x elapsed=0:01:57.18    frame=  941 fps=8.0 q=31.0 size=     512KiB time=00:00:47.00 bitrate=  89.2kbits/s speed=0.399x elapsed=0:01:57.69    frame=  944 fps=8.0 q=34.0 size=     512KiB time=00:00:47.15 bitrate=  89.0kbits/s speed=0.399x elapsed=0:01:58.19    frame=  946 fps=8.0 q=34.0 size=     512KiB time=00:00:47.25 bitrate=  88.8kbits/s speed=0.398x elapsed=0:01:58.70    frame=  950 fps=8.0 q=34.0 size=     512KiB time=00:00:47.45 bitrate=  88.4kbits/s speed=0.398x elapsed=0:01:59.21    frame=  957 fps=8.0 q=30.0 size=     512KiB time=00:00:47.80 bitrate=  87.7kbits/s speed=0.399x elapsed=0:01:59.74    frame=  961 fps=8.0 q=32.0 size=     512KiB time=00:00:48.00 bitrate=  87.4kbits/s speed=0.399x elapsed=0:02:00.24    frame=  966 fps=8.0 q=34.0 size=     512KiB time=00:00:48.25 bitrate=  86.9kbits/s speed= 0.4x elapsed=0:02:00.74    frame=  970 fps=8.0 q=34.0 size=     512KiB time=00:00:48.45 bitrate=  86.6kbits/s speed= 0.4x elapsed=0:02:01.25    frame=  975 fps=8.0 q=33.0 size=     512KiB time=00:00:48.70 bitrate=  86.1kbits/s speed= 0.4x elapsed=0:02:01.75    frame=  976 fps=8.0 q=34.0 size=     512KiB time=00:00:48.75 bitrate=  86.0kbits/s speed=0.399x elapsed=0:02:02.26    frame=  977 fps=8.0 q=31.0 size=     512KiB time=00:00:48.80 bitrate=  85.9kbits/s speed=0.397x elapsed=0:02:02.77    frame=  982 fps=8.0 q=34.0 size=     512KiB time=00:00:49.05 bitrate=  85.5kbits/s speed=0.398x elapsed=0:02:03.30    frame=  986 fps=8.0 q=34.0 size=     512KiB time=00:00:49.25 bitrate=  85.2kbits/s speed=0.398x elapsed=0:02:03.81    frame=  989 fps=8.0 q=30.0 size=     512KiB time=00:00:49.40 bitrate=  84.9kbits/s speed=0.397x elapsed=0:02:04.33    frame=  994 fps=8.0 q=34.0 size=     512KiB time=00:00:49.65 bitrate=  84.5kbits/s speed=0.398x elapsed=0:02:04.84    frame=  996 fps=7.9 q=34.0 size=     512KiB time=00:00:49.75 bitrate=  84.3kbits/s speed=0.397x elapsed=0:02:05.35    frame= 1001 fps=8.0 q=31.0 size=     512KiB time=00:00:50.00 bitrate=  83.9kbits/s speed=0.397x elapsed=0:02:05.86    frame= 1004 fps=7.9 q=34.0 size=     512KiB time=00:00:50.15 bitrate=  83.6kbits/s speed=0.397x elapsed=0:02:06.36    frame= 1007 fps=7.9 q=31.0 size=     512KiB time=00:00:50.30 bitrate=  83.4kbits/s speed=0.396x elapsed=0:02:06.87    frame= 1011 fps=7.9 q=32.0 size=     512KiB time=00:00:50.50 bitrate=  83.1kbits/s speed=0.396x elapsed=0:02:07.38    frame= 1014 fps=7.9 q=34.0 size=     512KiB time=00:00:50.65 bitrate=  82.8kbits/s speed=0.396x elapsed=0:02:07.89    frame= 1019 fps=7.9 q=31.0 size=     512KiB time=00:00:50.90 bitrate=  82.4kbits/s speed=0.396x elapsed=0:02:08.40    frame= 1053 fps=8.2 q=29.0 size=     512KiB time=00:00:52.60 bitrate=  79.7kbits/s speed=0.408x elapsed=0:02:08.91    frame= 1057 fps=8.2 q=31.0 size=     512KiB time=00:00:52.80 bitrate=  79.4kbits/s speed=0.408x elapsed=0:02:09.42    frame= 1065 fps=8.2 q=32.0 size=     512KiB time=00:00:53.20 bitrate=  78.8kbits/s speed=0.409x elapsed=0:02:09.92    frame= 1065 fps=8.2 q=32.0 size=     512KiB time=00:00:53.20 bitrate=  78.8kbits/s speed=0.408x elapsed=0:02:10.42    frame= 1069 fps=8.2 q=27.0 size=     512KiB time=00:00:53.40 bitrate=  78.5kbits/s speed=0.408x elapsed=0:02:10.93    frame= 1069 fps=8.1 q=27.0 size=     512KiB time=00:00:53.40 bitrate=  78.5kbits/s speed=0.406x elapsed=0:02:11.44    frame= 1071 fps=8.1 q=33.0 size=     512KiB time=00:00:53.50 bitrate=  78.4kbits/s speed=0.405x elapsed=0:02:11.95    frame= 1073 fps=8.1 q=32.0 size=     512KiB time=00:00:53.60 bitrate=  78.3kbits/s speed=0.405x elapsed=0:02:12.45    frame= 1105 fps=8.3 q=30.0 size=     512KiB time=00:00:55.20 bitrate=  76.0kbits/s speed=0.415x elapsed=0:02:12.96    frame= 1109 fps=8.3 q=31.0 size=     512KiB time=00:00:55.40 bitrate=  75.7kbits/s speed=0.415x elapsed=0:02:13.46    frame= 1113 fps=8.3 q=20.0 size=     512KiB time=00:00:55.60 bitrate=  75.4kbits/s speed=0.415x elapsed=0:02:13.97    frame= 1117 fps=8.3 q=31.0 size=     512KiB time=00:00:55.80 bitrate=  75.2kbits/s speed=0.415x elapsed=0:02:14.47    frame= 1125 fps=8.3 q=31.0 size=     512KiB time=00:00:56.20 bitrate=  74.6kbits/s speed=0.416x elapsed=0:02:14.98    frame= 1129 fps=8.3 q=25.0 size=     512KiB time=00:00:56.40 bitrate=  74.4kbits/s speed=0.416x elapsed=0:02:15.49    frame= 1129 fps=8.3 q=25.0 size=     512KiB time=00:00:56.40 bitrate=  74.4kbits/s speed=0.415x elapsed=0:02:15.99    frame= 1133 fps=8.3 q=30.0 size=     512KiB time=00:00:56.60 bitrate=  74.1kbits/s speed=0.415x elapsed=0:02:16.51    frame= 1137 fps=8.3 q=30.0 size=     512KiB time=00:00:56.80 bitrate=  73.8kbits/s speed=0.415x elapsed=0:02:17.01    frame= 1141 fps=8.3 q=32.0 size=     512KiB time=00:00:57.00 bitrate=  73.6kbits/s speed=0.414x elapsed=0:02:17.52    frame= 1145 fps=8.3 q=16.0 size=     512KiB time=00:00:57.20 bitrate=  73.3kbits/s speed=0.414x elapsed=0:02:18.02    frame= 1149 fps=8.3 q=32.0 size=     512KiB time=00:00:57.40 bitrate=  73.1kbits/s speed=0.414x elapsed=0:02:18.52    frame= 1153 fps=8.3 q=30.0 size=     512KiB time=00:00:57.60 bitrate=  72.8kbits/s speed=0.414x elapsed=0:02:19.04    frame= 1161 fps=8.3 q=22.0 size=     512KiB time=00:00:58.00 bitrate=  72.3kbits/s speed=0.416x elapsed=0:02:19.54    frame= 1161 fps=8.3 q=22.0 size=     512KiB time=00:00:58.00 bitrate=  72.3kbits/s speed=0.414x elapsed=0:02:20.05    frame= 1169 fps=8.3 q=31.0 size=     512KiB time=00:00:58.40 bitrate=  71.8kbits/s speed=0.415x elapsed=0:02:20.55    frame= 1179 fps=8.4 q=33.0 size=     512KiB time=00:00:58.90 bitrate=  71.2kbits/s speed=0.418x elapsed=0:02:21.06    frame= 1183 fps=8.4 q=33.0 size=     768KiB time=00:00:59.10 bitrate= 106.5kbits/s speed=0.417x elapsed=0:02:21.56    frame= 1185 fps=8.3 q=27.0 size=     768KiB time=00:00:59.20 bitrate= 106.3kbits/s speed=0.417x elapsed=0:02:22.06    frame= 1187 fps=8.3 q=32.0 size=     768KiB time=00:00:59.30 bitrate= 106.1kbits/s speed=0.416x elapsed=0:02:22.57    frame= 1189 fps=8.3 q=31.0 size=     768KiB time=00:00:59.40 bitrate= 105.9kbits/s speed=0.415x elapsed=0:02:23.07    [out#0/matroska @ 0x9bb414240] video:850KiB audio:0KiB subtitle:0KiB other streams:0KiB global headers:0KiB muxing overhead: 0.738241%
frame= 1200 fps=8.4 q=34.0 Lsize=     856KiB time=00:00:59.95 bitrate= 117.0kbits/s speed=0.418x elapsed=0:02:23.52    
  adding: 0.mkv (deflated 1%)

Wrote /Users/adpena/projects/pact/submissions/robust_current/archive.zip
Base:   864168 bytes
